<svg width="284" height="292" viewBox="0 0 284 292" fill="none" xmlns="http://www.w3.org/2000/svg">
<g filter="url(#filter0_d_5_228)">
<rect x="80" y="70" width="124" height="132" rx="24" fill="white"/>
</g>
<rect x="129" y="173" width="26" height="6" rx="3" fill="#EDF1F5"/>
<rect x="105" y="117" width="74" height="6" rx="3" fill="#EDF1F5"/>
<rect x="105" y="117" width="39" height="6" rx="3" fill="#FB9899"/>
<rect x="105" y="135" width="74" height="6" rx="3" fill="#EDF1F5"/>
<rect x="105" y="135" width="51" height="6" rx="3" fill="#FB9899"/>
<rect x="105" y="151" width="74" height="6" rx="3" fill="#EDF1F5"/>
<rect x="105" y="151" width="33" height="6" rx="3" fill="#FB9899"/>
<path d="M119.04 97.07C118.573 97.07 118.153 96.99 117.78 96.83C117.407 96.6633 117.113 96.43 116.9 96.13C116.687 95.83 116.58 95.48 116.58 95.08H117.8C117.827 95.38 117.943 95.6267 118.15 95.82C118.363 96.0133 118.66 96.11 119.04 96.11C119.433 96.11 119.74 96.0167 119.96 95.83C120.18 95.6367 120.29 95.39 120.29 95.09C120.29 94.8567 120.22 94.6667 120.08 94.52C119.947 94.3733 119.777 94.26 119.57 94.18C119.37 94.1 119.09 94.0133 118.73 93.92C118.277 93.8 117.907 93.68 117.62 93.56C117.34 93.4333 117.1 93.24 116.9 92.98C116.7 92.72 116.6 92.3733 116.6 91.94C116.6 91.54 116.7 91.19 116.9 90.89C117.1 90.59 117.38 90.36 117.74 90.2C118.1 90.04 118.517 89.96 118.99 89.96C119.663 89.96 120.213 90.13 120.64 90.47C121.073 90.8033 121.313 91.2633 121.36 91.85H120.1C120.08 91.5967 119.96 91.38 119.74 91.2C119.52 91.02 119.23 90.93 118.87 90.93C118.543 90.93 118.277 91.0133 118.07 91.18C117.863 91.3467 117.76 91.5867 117.76 91.9C117.76 92.1133 117.823 92.29 117.95 92.43C118.083 92.5633 118.25 92.67 118.45 92.75C118.65 92.83 118.923 92.9167 119.27 93.01C119.73 93.1367 120.103 93.2633 120.39 93.39C120.683 93.5167 120.93 93.7133 121.13 93.98C121.337 94.24 121.44 94.59 121.44 95.03C121.44 95.3833 121.343 95.7167 121.15 96.03C120.963 96.3433 120.687 96.5967 120.32 96.79C119.96 96.9767 119.533 97.07 119.04 97.07ZM122.405 94.24C122.405 93.6733 122.518 93.1767 122.745 92.75C122.978 92.3167 123.298 91.9833 123.705 91.75C124.112 91.5167 124.578 91.4 125.105 91.4C125.772 91.4 126.322 91.56 126.755 91.88C127.195 92.1933 127.492 92.6433 127.645 93.23H126.415C126.315 92.9567 126.155 92.7433 125.935 92.59C125.715 92.4367 125.438 92.36 125.105 92.36C124.638 92.36 124.265 92.5267 123.985 92.86C123.712 93.1867 123.575 93.6467 123.575 94.24C123.575 94.8333 123.712 95.2967 123.985 95.63C124.265 95.9633 124.638 96.13 125.105 96.13C125.765 96.13 126.202 95.84 126.415 95.26H127.645C127.485 95.82 127.185 96.2667 126.745 96.6C126.305 96.9267 125.758 97.09 125.105 97.09C124.578 97.09 124.112 96.9733 123.705 96.74C123.298 96.5 122.978 96.1667 122.745 95.74C122.518 95.3067 122.405 94.8067 122.405 94.24ZM131.631 91.4C132.051 91.4 132.425 91.49 132.751 91.67C133.085 91.85 133.345 92.1167 133.531 92.47C133.725 92.8233 133.821 93.25 133.821 93.75V97H132.691V93.92C132.691 93.4267 132.568 93.05 132.321 92.79C132.075 92.5233 131.738 92.39 131.311 92.39C130.885 92.39 130.545 92.5233 130.291 92.79C130.045 93.05 129.921 93.4267 129.921 93.92V97H128.781V89.6H129.921V92.13C130.115 91.8967 130.358 91.7167 130.651 91.59C130.951 91.4633 131.278 91.4 131.631 91.4ZM140.325 94.11C140.325 94.3167 140.312 94.5033 140.285 94.67H136.075C136.109 95.11 136.272 95.4633 136.565 95.73C136.859 95.9967 137.219 96.13 137.645 96.13C138.259 96.13 138.692 95.8733 138.945 95.36H140.175C140.009 95.8667 139.705 96.2833 139.265 96.61C138.832 96.93 138.292 97.09 137.645 97.09C137.119 97.09 136.645 96.9733 136.225 96.74C135.812 96.5 135.485 96.1667 135.245 95.74C135.012 95.3067 134.895 94.8067 134.895 94.24C134.895 93.6733 135.009 93.1767 135.235 92.75C135.469 92.3167 135.792 91.9833 136.205 91.75C136.625 91.5167 137.105 91.4 137.645 91.4C138.165 91.4 138.629 91.5133 139.035 91.74C139.442 91.9667 139.759 92.2867 139.985 92.7C140.212 93.1067 140.325 93.5767 140.325 94.11ZM139.135 93.75C139.129 93.33 138.979 92.9933 138.685 92.74C138.392 92.4867 138.029 92.36 137.595 92.36C137.202 92.36 136.865 92.4867 136.585 92.74C136.305 92.9867 136.139 93.3233 136.085 93.75H139.135ZM141.067 94.22C141.067 93.6667 141.181 93.1767 141.407 92.75C141.641 92.3233 141.954 91.9933 142.347 91.76C142.747 91.52 143.191 91.4 143.677 91.4C144.037 91.4 144.391 91.48 144.737 91.64C145.091 91.7933 145.371 92 145.577 92.26V89.6H146.727V97H145.577V96.17C145.391 96.4367 145.131 96.6567 144.797 96.83C144.471 97.0033 144.094 97.09 143.667 97.09C143.187 97.09 142.747 96.97 142.347 96.73C141.954 96.4833 141.641 96.1433 141.407 95.71C141.181 95.27 141.067 94.7733 141.067 94.22ZM145.577 94.24C145.577 93.86 145.497 93.53 145.337 93.25C145.184 92.97 144.981 92.7567 144.727 92.61C144.474 92.4633 144.201 92.39 143.907 92.39C143.614 92.39 143.341 92.4633 143.087 92.61C142.834 92.75 142.627 92.96 142.467 93.24C142.314 93.5133 142.237 93.84 142.237 94.22C142.237 94.6 142.314 94.9333 142.467 95.22C142.627 95.5067 142.834 95.7267 143.087 95.88C143.347 96.0267 143.621 96.1 143.907 96.1C144.201 96.1 144.474 96.0267 144.727 95.88C144.981 95.7333 145.184 95.52 145.337 95.24C145.497 94.9533 145.577 94.62 145.577 94.24ZM153.215 91.49V97H152.075V96.35C151.895 96.5767 151.658 96.7567 151.365 96.89C151.078 97.0167 150.771 97.08 150.445 97.08C150.011 97.08 149.621 96.99 149.275 96.81C148.935 96.63 148.665 96.3633 148.465 96.01C148.271 95.6567 148.175 95.23 148.175 94.73V91.49H149.305V94.56C149.305 95.0533 149.428 95.4333 149.675 95.7C149.921 95.96 150.258 96.09 150.685 96.09C151.111 96.09 151.448 95.96 151.695 95.7C151.948 95.4333 152.075 95.0533 152.075 94.56V91.49H153.215ZM155.859 89.6V97H154.719V89.6H155.859ZM162.405 94.11C162.405 94.3167 162.392 94.5033 162.365 94.67H158.155C158.189 95.11 158.352 95.4633 158.645 95.73C158.939 95.9967 159.299 96.13 159.725 96.13C160.339 96.13 160.772 95.8733 161.025 95.36H162.255C162.089 95.8667 161.785 96.2833 161.345 96.61C160.912 96.93 160.372 97.09 159.725 97.09C159.199 97.09 158.725 96.9733 158.305 96.74C157.892 96.5 157.565 96.1667 157.325 95.74C157.092 95.3067 156.975 94.8067 156.975 94.24C156.975 93.6733 157.089 93.1767 157.315 92.75C157.549 92.3167 157.872 91.9833 158.285 91.75C158.705 91.5167 159.185 91.4 159.725 91.4C160.245 91.4 160.709 91.5133 161.115 91.74C161.522 91.9667 161.839 92.2867 162.065 92.7C162.292 93.1067 162.405 93.5767 162.405 94.11ZM161.215 93.75C161.209 93.33 161.059 92.9933 160.765 92.74C160.472 92.4867 160.109 92.36 159.675 92.36C159.282 92.36 158.945 92.4867 158.665 92.74C158.385 92.9867 158.219 93.3233 158.165 93.75H161.215ZM165.527 97.09C165.094 97.09 164.704 97.0133 164.357 96.86C164.017 96.7 163.747 96.4867 163.547 96.22C163.347 95.9467 163.241 95.6433 163.227 95.31L164.407 95.31C164.427 95.5433 164.537 95.74 164.737 95.9C164.944 96.0533 165.201 96.13 165.507 96.13C165.827 96.13 166.074 96.07 166.247 95.95C166.427 95.8233 166.517 95.6633 166.517 95.47C166.517 95.2633 166.417 95.11 166.217 95.01C166.024 94.91 165.714 94.8 165.287 94.68C164.874 94.5667 164.537 94.4567 164.277 94.35C164.017 94.2433 163.791 94.08 163.597 93.86C163.411 93.64 163.317 93.35 163.317 92.99C163.317 92.6967 163.404 92.43 163.577 92.19C163.751 91.9433 163.997 91.75 164.317 91.61C164.644 91.47 165.017 91.4 165.437 91.4C166.064 91.4 166.567 91.56 166.947 91.88C167.334 92.1933 167.541 92.6233 167.567 93.17H166.427C166.407 92.9233 166.307 92.7267 166.127 92.58C165.947 92.4333 165.704 92.36 165.397 92.36C165.097 92.36 164.867 92.4167 164.707 92.53C164.547 92.6433 164.467 92.7933 164.467 92.98C164.467 93.1267 164.521 93.25 164.627 93.35C164.734 93.45 164.864 93.53 165.017 93.59C165.171 93.6433 165.397 93.7133 165.697 93.8C166.097 93.9067 166.424 94.0167 166.677 94.13C166.937 94.2367 167.161 94.3967 167.347 94.61C167.534 94.8233 167.631 95.1067 167.637 95.46C167.637 95.7733 167.551 96.0533 167.377 96.3C167.204 96.5467 166.957 96.74 166.637 96.88C166.324 97.02 165.954 97.09 165.527 97.09Z" fill="#0D1111"/>
<defs>
<filter id="filter0_d_5_228" x="0" y="0" width="284" height="292" filterUnits="userSpaceOnUse" color-interpolation-filters="sRGB">
<feFlood flood-opacity="0" result="BackgroundImageFix"/>
<feColorMatrix in="SourceAlpha" type="matrix" values="0 0 0 0 0 0 0 0 0 0 0 0 0 0 0 0 0 0 127 0" result="hardAlpha"/>
<feOffset dy="10"/>
<feGaussianBlur stdDeviation="40"/>
<feColorMatrix type="matrix" values="0 0 0 0 0 0 0 0 0 0 0 0 0 0 0 0 0 0 0.05 0"/>
<feBlend mode="normal" in2="BackgroundImageFix" result="effect1_dropShadow_5_228"/>
<feBlend mode="normal" in="SourceGraphic" in2="effect1_dropShadow_5_228" result="shape"/>
</filter>
</defs>
</svg>
